<svg width="613" height="133" viewBox="0 0 613 133" fill="none" xmlns="http://www.w3.org/2000/svg">
<path d="M64.59 6.84C63.0967 6.93333 62 7.12 61.3 7.4C60.6467 7.68 60.2033 8.21667 59.97 9.01C59.7367 9.80333 59.62 11.0867 59.62 12.86V47.58C59.62 49.3533 59.7367 50.6367 59.97 51.43C60.25 52.2233 60.7167 52.76 61.37 53.04C62.0233 53.32 63.0967 53.5067 64.59 53.6V55C61.7433 54.86 57.6133 54.79 52.2 54.79C46.5533 54.79 42.4 54.86 39.74 55V53.6C41.42 53.5067 42.6333 53.32 43.38 53.04C44.1733 52.76 44.71 52.2233 44.99 51.43C45.27 50.6367 45.41 49.3533 45.41 47.58V11.81L28.54 54.93H27.42L7.68 9.99V41.28C7.68 44.7333 7.82 47.23 8.1 48.77C8.38 50.2633 8.98667 51.36 9.92 52.06C10.9 52.76 12.51 53.2733 14.75 53.6V55C12.8367 54.86 10.2233 54.79 6.91 54.79C4.43667 54.79 2.5 54.86 1.1 55V53.6C2.54667 53.2733 3.62 52.7833 4.32 52.13C5.02 51.43 5.48667 50.38 5.72 48.98C5.95333 47.58 6.07 45.48 6.07 42.68V12.86C6.07 11.0867 5.93 9.80333 5.65 9.01C5.41667 8.21667 4.97333 7.68 4.32 7.4C3.66667 7.12 2.59333 6.93333 1.1 6.84V5.44C2.5 5.58 4.43667 5.65 6.91 5.65C12.51 5.65 17.34 5.58 21.4 5.44L34.63 35.19L46.11 5.65H52.2C57.6133 5.65 61.7433 5.58 64.59 5.44V6.84ZM88.4819 48.35C91.8885 48.35 94.7119 46.7867 96.9519 43.66L98.1419 44.08C97.1152 47.3467 95.3652 50.1467 92.8919 52.48C90.4652 54.8133 87.3385 55.98 83.5119 55.98C78.6119 55.98 74.6919 54.4633 71.7519 51.43C68.8119 48.3967 67.3419 43.5433 67.3419 36.87C67.3419 30.4767 68.9752 25.6933 72.2419 22.52C75.5552 19.3 79.9185 17.69 85.3319 17.69C94.1519 17.69 98.5619 22.9167 98.5619 33.37H80.5019C80.4552 33.93 80.4319 34.77 80.4319 35.89C80.4319 40.37 81.2019 43.5667 82.7419 45.48C84.3285 47.3933 86.2419 48.35 88.4819 48.35ZM84.8419 19.3C82.2285 19.3 80.6885 23.5467 80.2219 32.04H88.3419C88.3885 28.3067 88.1085 25.25 87.5019 22.87C86.9419 20.49 86.0552 19.3 84.8419 19.3ZM128.813 17.69C132.547 17.69 135.183 18.6233 136.723 20.49C137.423 21.33 137.937 22.4733 138.263 23.92C138.59 25.32 138.753 27.1867 138.753 29.52V48.49C138.753 50.4033 139.033 51.7333 139.593 52.48C140.2 53.18 141.227 53.53 142.673 53.53V55C137.633 54.8133 134.367 54.72 132.873 54.72C131.287 54.72 127.973 54.8133 122.933 55V53.53C124.147 53.53 124.987 53.18 125.453 52.48C125.92 51.7333 126.153 50.4033 126.153 48.49V25.74C126.153 24.2467 125.873 23.15 125.313 22.45C124.8 21.7033 123.937 21.33 122.723 21.33C121.37 21.33 120.18 21.82 119.153 22.8C118.173 23.7333 117.683 24.9233 117.683 26.37V48.49C117.683 50.4033 117.917 51.7333 118.383 52.48C118.85 53.18 119.69 53.53 120.903 53.53V55C116.237 54.8133 113.157 54.72 111.663 54.72C110.077 54.72 106.577 54.8133 101.163 55V53.53C102.61 53.53 103.613 53.18 104.173 52.48C104.78 51.7333 105.083 50.4033 105.083 48.49V26.3C105.083 24.1533 104.78 22.59 104.173 21.61C103.613 20.63 102.61 20.14 101.163 20.14V18.67C102.657 18.81 104.103 18.88 105.503 18.88C110.357 18.88 114.417 18.5533 117.683 17.9V22.94C119.783 19.44 123.493 17.69 128.813 17.69ZM149.998 4.46C152.518 4.46 154.361 5.32333 155.528 7.05C156.041 7.75 156.461 8.68333 156.788 9.85C157.114 11.0167 157.278 12.3 157.278 13.7C157.278 16.1267 156.648 18.3667 155.388 20.42C154.128 22.4733 152.284 24.06 149.858 25.18L149.228 23.92C150.441 23.36 151.514 22.5667 152.448 21.54C153.428 20.4667 154.104 19.3467 154.478 18.18C154.711 17.5267 154.828 16.7567 154.828 15.87C154.828 15.17 154.781 14.6567 154.688 14.33C153.474 15.7767 151.771 16.5 149.578 16.5C147.711 16.5 146.218 15.9867 145.098 14.96C143.978 13.8867 143.418 12.3933 143.418 10.48C143.418 8.66 144.024 7.21333 145.238 6.14C146.451 5.02 148.038 4.46 149.998 4.46ZM175.131 17.69C176.951 17.69 178.654 17.9 180.241 18.32C181.874 18.6933 183.111 19.1133 183.951 19.58C184.464 19.86 184.884 20 185.211 20C186.191 20 186.774 19.2533 186.961 17.76H188.361C188.174 20.1867 188.081 24.3867 188.081 30.36H186.681C186.308 27.28 185.421 24.69 184.021 22.59C182.668 20.4433 180.684 19.37 178.071 19.37C176.904 19.37 175.924 19.72 175.131 20.42C174.338 21.12 173.941 22.0767 173.941 23.29C173.941 24.83 174.454 26.2067 175.481 27.42C176.508 28.5867 178.118 30.0333 180.311 31.76C180.404 31.8067 181.081 32.3433 182.341 33.37C184.954 35.5167 186.868 37.43 188.081 39.11C189.294 40.7433 189.901 42.7733 189.901 45.2C189.901 47.2533 189.271 49.12 188.011 50.8C186.751 52.4333 185.024 53.7167 182.831 54.65C180.684 55.5367 178.328 55.98 175.761 55.98C172.821 55.98 170.418 55.3967 168.551 54.23C167.758 53.81 167.104 53.5067 166.591 53.32C166.078 53.1333 165.564 53.04 165.051 53.04C164.164 53.04 163.511 53.8567 163.091 55.49H161.691C161.878 52.83 161.971 48.1633 161.971 41.49H163.371C163.791 45.3167 164.818 48.3967 166.451 50.73C168.084 53.0633 170.138 54.23 172.611 54.23C173.778 54.23 174.734 53.9033 175.481 53.25C176.274 52.5967 176.671 51.64 176.671 50.38C176.671 49.0733 176.391 47.9067 175.831 46.88C175.318 45.8533 174.664 44.9433 173.871 44.15C173.124 43.31 171.888 42.12 170.161 40.58C168.201 38.76 166.708 37.3133 165.681 36.24C164.654 35.1667 163.768 33.93 163.021 32.53C162.321 31.0833 161.971 29.4967 161.971 27.77C161.971 25.7633 162.578 23.99 163.791 22.45C165.004 20.91 166.614 19.7433 168.621 18.95C170.628 18.11 172.798 17.69 175.131 17.69ZM235.634 29.03C240.208 29.2633 243.964 29.9867 246.904 31.2C249.891 32.4133 252.061 33.93 253.414 35.75C254.768 37.5233 255.444 39.4133 255.444 41.42C255.444 45.9933 253.624 49.4 249.984 51.64C246.344 53.88 241.164 55 234.444 55C233.091 55 231.948 54.9767 231.014 54.93C227.841 54.8367 224.738 54.79 221.704 54.79C216.244 54.79 212.184 54.86 209.524 55V53.6C211.018 53.5067 212.091 53.32 212.744 53.04C213.444 52.76 213.911 52.2233 214.144 51.43C214.378 50.6367 214.494 49.3533 214.494 47.58V12.86C214.494 11.0867 214.354 9.80333 214.074 9.01C213.841 8.21667 213.398 7.68 212.744 7.4C212.091 7.12 211.018 6.93333 209.524 6.84V5.44C212.184 5.58 216.198 5.65 221.564 5.65L229.614 5.58C230.548 5.53333 231.621 5.51 232.834 5.51C238.994 5.51 243.684 6.51333 246.904 8.52C250.171 10.48 251.804 13.14 251.804 16.5C251.804 18.2267 251.198 19.9767 249.984 21.75C248.771 23.4767 246.951 24.9933 244.524 26.3C242.098 27.6067 239.134 28.47 235.634 28.89V29.03ZM232.484 6.84C231.411 6.84 230.594 7.00333 230.034 7.33C229.521 7.65666 229.171 8.24 228.984 9.08C228.798 9.92 228.704 11.18 228.704 12.86V28.68H230.594C233.114 28.68 234.864 27.6533 235.844 25.6C236.871 23.5 237.384 20.7233 237.384 17.27C237.384 13.7233 236.988 11.11 236.194 9.43C235.448 7.70333 234.211 6.84 232.484 6.84ZM233.254 53.39C238.248 53.39 240.744 49.3067 240.744 41.14C240.744 37.4533 239.858 34.6533 238.084 32.74C236.311 30.8267 233.511 29.87 229.684 29.87H228.704V47.58C228.704 49.26 228.821 50.4967 229.054 51.29C229.288 52.0833 229.708 52.6433 230.314 52.97C230.968 53.25 231.948 53.39 233.254 53.39ZM267.422 55.49C264.435 55.49 262.172 54.6967 260.632 53.11C259.138 51.4767 258.392 49.4467 258.392 47.02C258.392 44.92 258.928 43.1933 260.002 41.84C261.122 40.44 262.428 39.3667 263.922 38.62C265.415 37.8733 267.352 37.1033 269.732 36.31C272.252 35.47 274.095 34.7 275.262 34C276.428 33.3 277.012 32.32 277.012 31.06V24.83C277.012 23.3367 276.638 22.0067 275.892 20.84C275.145 19.6733 273.862 19.09 272.042 19.09C270.595 19.09 269.288 19.4867 268.122 20.28C269.708 20.84 270.875 21.68 271.622 22.8C272.415 23.8733 272.812 25.0867 272.812 26.44C272.812 28.26 272.158 29.73 270.852 30.85C269.592 31.9233 268.052 32.46 266.232 32.46C264.412 32.46 262.965 31.9 261.892 30.78C260.865 29.6133 260.352 28.1433 260.352 26.37C260.352 24.97 260.702 23.7567 261.402 22.73C262.102 21.7033 263.198 20.77 264.692 19.93C267.305 18.4367 271.038 17.69 275.892 17.69C278.458 17.69 280.675 17.9467 282.542 18.46C284.408 18.9267 285.995 19.8367 287.302 21.19C288.235 22.17 288.842 23.4067 289.122 24.9C289.448 26.3467 289.612 28.3767 289.612 30.99V49.75C289.612 50.9167 289.682 51.71 289.822 52.13C290.008 52.55 290.312 52.76 290.732 52.76C291.058 52.76 291.408 52.6667 291.782 52.48C292.155 52.2467 292.505 51.99 292.832 51.71L293.532 52.9C291.525 54.6267 288.655 55.49 284.922 55.49C282.122 55.49 280.162 55.0233 279.042 54.09C277.922 53.11 277.315 51.8033 277.222 50.17C275.028 53.7167 271.762 55.49 267.422 55.49ZM274.422 49.89C275.402 49.89 276.265 49.4933 277.012 48.7V33.93C276.592 34.63 275.822 35.54 274.702 36.66C273.442 37.8733 272.485 39.0633 271.832 40.23C271.178 41.35 270.852 42.89 270.852 44.85C270.852 48.21 272.042 49.89 274.422 49.89ZM321.059 17.69C323.346 17.69 324.979 18.39 325.959 19.79C326.986 21.19 327.499 22.8467 327.499 24.76C327.499 26.86 326.892 28.54 325.679 29.8C324.512 31.0133 322.972 31.62 321.059 31.62C319.052 31.62 317.512 31.1767 316.439 30.29C315.366 29.3567 314.829 28.12 314.829 26.58C314.829 23.8267 316.019 21.6567 318.399 20.07C317.559 20.07 316.812 20.2333 316.159 20.56C314.992 21.0733 314.012 21.9133 313.219 23.08C312.426 24.2 312.029 25.4367 312.029 26.79V47.79C312.029 49.9833 312.472 51.5 313.359 52.34C314.292 53.1333 315.856 53.53 318.049 53.53V55C317.442 55 316.929 54.9767 316.509 54.93C311.609 54.79 308.342 54.72 306.709 54.72C305.262 54.72 302.019 54.79 296.979 54.93C296.606 54.9767 296.116 55 295.509 55V53.53C296.956 53.53 297.959 53.18 298.519 52.48C299.126 51.7333 299.429 50.4033 299.429 48.49V26.3C299.429 24.1533 299.126 22.59 298.519 21.61C297.959 20.63 296.956 20.14 295.509 20.14V18.67C297.002 18.81 298.449 18.88 299.849 18.88C304.702 18.88 308.762 18.5533 312.029 17.9V22.94C313.802 19.44 316.812 17.69 321.059 17.69ZM354.023 17.69C357.663 17.69 360.603 19.1833 362.843 22.17C365.083 25.1567 366.203 29.52 366.203 35.26C366.203 42.68 364.71 48 361.723 51.22C358.736 54.3933 354.793 55.98 349.893 55.98C348.4 55.98 347.14 55.9333 346.113 55.84C345.133 55.7467 344.223 55.5133 343.383 55.14C341.656 54.44 339.86 54.09 337.993 54.09C336.593 54.09 335.286 54.2767 334.073 54.65C332.86 55.0233 331.926 55.5133 331.273 56.12L330.293 55.42C330.62 54.44 330.783 53.1567 330.783 51.57V8.66C330.783 6.51333 330.48 4.95 329.873 3.97C329.313 2.99 328.31 2.5 326.863 2.5V1.03C328.31 1.17 329.756 1.24 331.203 1.24C336.056 1.24 340.116 0.913332 343.383 0.259995V22.94C345.53 19.44 349.076 17.69 354.023 17.69ZM346.673 54.58C350.966 54.58 353.113 48.6767 353.113 36.87C353.113 31.13 352.693 27.1167 351.853 24.83C351.013 22.4967 349.87 21.33 348.423 21.33C347.07 21.33 345.88 21.82 344.853 22.8C343.873 23.7333 343.383 24.9233 343.383 26.37V53.74C344.456 54.3 345.553 54.58 346.673 54.58ZM391.724 48.35C395.131 48.35 397.954 46.7867 400.194 43.66L401.384 44.08C400.357 47.3467 398.607 50.1467 396.134 52.48C393.707 54.8133 390.581 55.98 386.754 55.98C381.854 55.98 377.934 54.4633 374.994 51.43C372.054 48.3967 370.584 43.5433 370.584 36.87C370.584 30.4767 372.217 25.6933 375.484 22.52C378.797 19.3 383.161 17.69 388.574 17.69C397.394 17.69 401.804 22.9167 401.804 33.37H383.744C383.697 33.93 383.674 34.77 383.674 35.89C383.674 40.37 384.444 43.5667 385.984 45.48C387.571 47.3933 389.484 48.35 391.724 48.35ZM388.084 19.3C385.471 19.3 383.931 23.5467 383.464 32.04H391.584C391.631 28.3067 391.351 25.25 390.744 22.87C390.184 20.49 389.297 19.3 388.084 19.3ZM429.956 17.69C432.242 17.69 433.876 18.39 434.856 19.79C435.882 21.19 436.396 22.8467 436.396 24.76C436.396 26.86 435.789 28.54 434.576 29.8C433.409 31.0133 431.869 31.62 429.956 31.62C427.949 31.62 426.409 31.1767 425.336 30.29C424.262 29.3567 423.726 28.12 423.726 26.58C423.726 23.8267 424.916 21.6567 427.296 20.07C426.456 20.07 425.709 20.2333 425.056 20.56C423.889 21.0733 422.909 21.9133 422.116 23.08C421.322 24.2 420.926 25.4367 420.926 26.79V47.79C420.926 49.9833 421.369 51.5 422.256 52.34C423.189 53.1333 424.752 53.53 426.946 53.53V55C426.339 55 425.826 54.9767 425.406 54.93C420.506 54.79 417.239 54.72 415.606 54.72C414.159 54.72 410.916 54.79 405.876 54.93C405.502 54.9767 405.012 55 404.406 55V53.53C405.852 53.53 406.856 53.18 407.416 52.48C408.022 51.7333 408.326 50.4033 408.326 48.49V26.3C408.326 24.1533 408.022 22.59 407.416 21.61C406.856 20.63 405.852 20.14 404.406 20.14V18.67C405.899 18.81 407.346 18.88 408.746 18.88C413.599 18.88 417.659 18.5533 420.926 17.9V22.94C422.699 19.44 425.709 17.69 429.956 17.69ZM452.807 17.69C454.627 17.69 456.33 17.9 457.917 18.32C459.55 18.6933 460.787 19.1133 461.627 19.58C462.14 19.86 462.56 20 462.887 20C463.867 20 464.45 19.2533 464.637 17.76H466.037C465.85 20.1867 465.757 24.3867 465.757 30.36H464.357C463.983 27.28 463.097 24.69 461.697 22.59C460.343 20.4433 458.36 19.37 455.747 19.37C454.58 19.37 453.6 19.72 452.807 20.42C452.013 21.12 451.617 22.0767 451.617 23.29C451.617 24.83 452.13 26.2067 453.157 27.42C454.183 28.5867 455.793 30.0333 457.987 31.76C458.08 31.8067 458.757 32.3433 460.017 33.37C462.63 35.5167 464.543 37.43 465.757 39.11C466.97 40.7433 467.577 42.7733 467.577 45.2C467.577 47.2533 466.947 49.12 465.687 50.8C464.427 52.4333 462.7 53.7167 460.507 54.65C458.36 55.5367 456.003 55.98 453.437 55.98C450.497 55.98 448.093 55.3967 446.227 54.23C445.433 53.81 444.78 53.5067 444.267 53.32C443.753 53.1333 443.24 53.04 442.727 53.04C441.84 53.04 441.187 53.8567 440.767 55.49H439.367C439.553 52.83 439.647 48.1633 439.647 41.49H441.047C441.467 45.3167 442.493 48.3967 444.127 50.73C445.76 53.0633 447.813 54.23 450.287 54.23C451.453 54.23 452.41 53.9033 453.157 53.25C453.95 52.5967 454.347 51.64 454.347 50.38C454.347 49.0733 454.067 47.9067 453.507 46.88C452.993 45.8533 452.34 44.9433 451.547 44.15C450.8 43.31 449.563 42.12 447.837 40.58C445.877 38.76 444.383 37.3133 443.357 36.24C442.33 35.1667 441.443 33.93 440.697 32.53C439.997 31.0833 439.647 29.4967 439.647 27.77C439.647 25.7633 440.253 23.99 441.467 22.45C442.68 20.91 444.29 19.7433 446.297 18.95C448.303 18.11 450.473 17.69 452.807 17.69ZM487.434 22.94C489.534 19.44 493.244 17.69 498.564 17.69C502.298 17.69 504.934 18.6233 506.474 20.49C507.174 21.33 507.688 22.4733 508.014 23.92C508.341 25.32 508.504 27.1867 508.504 29.52V48.49C508.504 50.4033 508.784 51.7333 509.344 52.48C509.951 53.18 510.978 53.53 512.424 53.53V55C507.384 54.8133 504.118 54.72 502.624 54.72C501.038 54.72 497.724 54.8133 492.684 55V53.53C493.898 53.53 494.738 53.18 495.204 52.48C495.671 51.7333 495.904 50.4033 495.904 48.49V25.74C495.904 24.2467 495.624 23.15 495.064 22.45C494.551 21.7033 493.688 21.33 492.474 21.33C491.121 21.33 489.931 21.82 488.904 22.8C487.924 23.7333 487.434 24.9233 487.434 26.37V48.49C487.434 50.4033 487.668 51.7333 488.134 52.48C488.601 53.18 489.441 53.53 490.654 53.53V55C485.988 54.8133 482.908 54.72 481.414 54.72C479.828 54.72 476.328 54.8133 470.914 55V53.53C472.361 53.53 473.364 53.18 473.924 52.48C474.531 51.7333 474.834 50.4033 474.834 48.49V8.66C474.834 6.51333 474.531 4.95 473.924 3.97C473.364 2.99 472.361 2.5 470.914 2.5V1.03C472.361 1.17 473.808 1.24 475.254 1.24C480.108 1.24 484.168 0.913332 487.434 0.259995V22.94ZM533.359 17.69C539.099 17.69 543.533 19.2067 546.659 22.24C549.786 25.2267 551.349 30.1033 551.349 36.87C551.349 43.6367 549.786 48.5133 546.659 51.5C543.533 54.4867 539.099 55.98 533.359 55.98C527.619 55.98 523.186 54.4867 520.059 51.5C516.933 48.5133 515.369 43.6367 515.369 36.87C515.369 30.1033 516.933 25.2267 520.059 22.24C523.186 19.2067 527.619 17.69 533.359 17.69ZM533.359 19.09C531.866 19.09 530.676 20.56 529.789 23.5C528.903 26.44 528.459 30.8967 528.459 36.87C528.459 42.8433 528.903 47.3 529.789 50.24C530.676 53.1333 531.866 54.58 533.359 54.58C534.853 54.58 536.043 53.1333 536.929 50.24C537.816 47.3 538.259 42.8433 538.259 36.87C538.259 30.8967 537.816 26.44 536.929 23.5C536.043 20.56 534.853 19.09 533.359 19.09ZM581.951 17.69C585.591 17.69 588.531 19.1833 590.771 22.17C593.011 25.1567 594.131 29.52 594.131 35.26C594.131 42.68 592.638 48 589.651 51.22C586.665 54.3933 582.721 55.98 577.821 55.98C575.115 55.98 572.945 55.5367 571.311 54.65V60.46C571.311 62.6067 571.801 64.1 572.781 64.94C573.808 65.78 575.325 66.2 577.331 66.2V67.67L575.301 67.6C569.701 67.46 566.085 67.39 564.451 67.39C563.051 67.39 559.831 67.4833 554.791 67.67V66.2C556.238 66.2 557.241 65.8267 557.801 65.08C558.408 64.38 558.711 63.0733 558.711 61.16V26.37C558.711 24.2233 558.408 22.66 557.801 21.68C557.241 20.7 556.238 20.21 554.791 20.21V18.74C556.238 18.88 557.685 18.95 559.131 18.95C563.985 18.95 568.045 18.6233 571.311 17.97V22.94C573.458 19.44 577.005 17.69 581.951 17.69ZM573.761 53.88C576.328 53.88 578.171 52.5033 579.291 49.75C580.458 46.95 581.041 42.6567 581.041 36.87C581.041 31.13 580.621 27.1167 579.781 24.83C578.941 22.4967 577.798 21.33 576.351 21.33C574.998 21.33 573.808 21.82 572.781 22.8C571.801 23.7333 571.311 24.9233 571.311 26.37V53.32C571.918 53.6933 572.735 53.88 573.761 53.88ZM10.27 77.26C12.6967 77.26 14.5633 77.7733 15.87 78.8C17.2233 79.8267 17.9 81.32 17.9 83.28C17.9 85.24 17.2233 86.7333 15.87 87.76C14.5633 88.7867 12.6967 89.3 10.27 89.3C7.79667 89.3 5.90667 88.7867 4.6 87.76C3.29333 86.7333 2.64 85.24 2.64 83.28C2.64 81.32 3.29333 79.8267 4.6 78.8C5.90667 77.7733 7.79667 77.26 10.27 77.26ZM16.99 125.49C16.99 127.403 17.27 128.733 17.83 129.48C18.4367 130.18 19.4633 130.53 20.91 130.53V132C15.87 131.813 12.5567 131.72 10.97 131.72C9.38333 131.72 5.88333 131.813 0.47 132V130.53C1.91667 130.53 2.92 130.18 3.48 129.48C4.08667 128.733 4.39 127.403 4.39 125.49V103.3C4.39 101.153 4.08667 99.59 3.48 98.61C2.92 97.63 1.91667 97.14 0.47 97.14V95.67C1.96333 95.81 3.41 95.88 4.81 95.88C9.66333 95.88 13.7233 95.5533 16.99 94.9V125.49ZM51.2255 94.69C54.9588 94.69 57.5955 95.6233 59.1355 97.49C59.8355 98.33 60.3488 99.4733 60.6755 100.92C61.0021 102.32 61.1655 104.187 61.1655 106.52V125.49C61.1655 127.403 61.4455 128.733 62.0055 129.48C62.6121 130.18 63.6388 130.53 65.0855 130.53V132C60.0455 131.813 56.7788 131.72 55.2855 131.72C53.6988 131.72 50.3855 131.813 45.3455 132V130.53C46.5588 130.53 47.3988 130.18 47.8655 129.48C48.3321 128.733 48.5655 127.403 48.5655 125.49V102.74C48.5655 101.247 48.2855 100.15 47.7255 99.45C47.2121 98.7033 46.3488 98.33 45.1355 98.33C43.7821 98.33 42.5921 98.82 41.5655 99.8C40.5855 100.733 40.0955 101.923 40.0955 103.37V125.49C40.0955 127.403 40.3288 128.733 40.7955 129.48C41.2621 130.18 42.1021 130.53 43.3155 130.53V132C38.6488 131.813 35.5688 131.72 34.0755 131.72C32.4888 131.72 28.9888 131.813 23.5755 132V130.53C25.0221 130.53 26.0255 130.18 26.5855 129.48C27.1921 128.733 27.4955 127.403 27.4955 125.49V103.3C27.4955 101.153 27.1921 99.59 26.5855 98.61C26.0255 97.63 25.0221 97.14 23.5755 97.14V95.67C25.0688 95.81 26.5155 95.88 27.9155 95.88C32.7688 95.88 36.8288 95.5533 40.0955 94.9V99.94C42.1955 96.44 45.9055 94.69 51.2255 94.69ZM127.121 82.44C126.794 87.62 126.631 92.24 126.631 96.3C126.631 98.4467 126.701 100.127 126.841 101.34H125.231C123.691 95.2267 121.707 90.8167 119.281 88.11C116.854 85.4033 114.241 84.05 111.441 84.05H111.371V124.09C111.371 126.05 111.557 127.473 111.931 128.36C112.351 129.247 113.074 129.853 114.101 130.18C115.174 130.46 116.854 130.6 119.141 130.6V132C112.561 131.86 107.451 131.79 103.811 131.79C100.497 131.79 95.6908 131.86 89.3908 132V130.6C91.6774 130.6 93.3341 130.46 94.3608 130.18C95.4341 129.853 96.1574 129.247 96.5308 128.36C96.9508 127.473 97.1608 126.05 97.1608 124.09V84.05H97.0908C94.2441 84.05 91.6074 85.4033 89.1808 88.11C86.8008 90.77 84.8408 95.18 83.3008 101.34H81.6908C81.8308 100.127 81.9008 98.4467 81.9008 96.3C81.9008 92.24 81.7374 87.62 81.4108 82.44C85.8441 82.58 93.4741 82.65 104.301 82.65C115.081 82.65 122.687 82.58 127.121 82.44ZM146.116 99.94C148.216 96.44 151.926 94.69 157.246 94.69C160.979 94.69 163.616 95.6233 165.156 97.49C165.856 98.33 166.369 99.4733 166.696 100.92C167.023 102.32 167.186 104.187 167.186 106.52V125.49C167.186 127.403 167.466 128.733 168.026 129.48C168.633 130.18 169.659 130.53 171.106 130.53V132C166.066 131.813 162.799 131.72 161.306 131.72C159.719 131.72 156.406 131.813 151.366 132V130.53C152.579 130.53 153.419 130.18 153.886 129.48C154.353 128.733 154.586 127.403 154.586 125.49V102.74C154.586 101.247 154.306 100.15 153.746 99.45C153.233 98.7033 152.369 98.33 151.156 98.33C149.803 98.33 148.613 98.82 147.586 99.8C146.606 100.733 146.116 101.923 146.116 103.37V125.49C146.116 127.403 146.349 128.733 146.816 129.48C147.283 130.18 148.123 130.53 149.336 130.53V132C144.669 131.813 141.589 131.72 140.096 131.72C138.509 131.72 135.009 131.813 129.596 132V130.53C131.043 130.53 132.046 130.18 132.606 129.48C133.213 128.733 133.516 127.403 133.516 125.49V85.66C133.516 83.5133 133.213 81.95 132.606 80.97C132.046 79.99 131.043 79.5 129.596 79.5V78.03C131.043 78.17 132.489 78.24 133.936 78.24C138.789 78.24 142.849 77.9133 146.116 77.26V99.94ZM195.191 125.35C198.598 125.35 201.421 123.787 203.661 120.66L204.851 121.08C203.824 124.347 202.074 127.147 199.601 129.48C197.174 131.813 194.048 132.98 190.221 132.98C185.321 132.98 181.401 131.463 178.461 128.43C175.521 125.397 174.051 120.543 174.051 113.87C174.051 107.477 175.684 102.693 178.951 99.52C182.264 96.3 186.628 94.69 192.041 94.69C200.861 94.69 205.271 99.9167 205.271 110.37H187.211C187.164 110.93 187.141 111.77 187.141 112.89C187.141 117.37 187.911 120.567 189.451 122.48C191.038 124.393 192.951 125.35 195.191 125.35ZM191.551 96.3C188.938 96.3 187.398 100.547 186.931 109.04H195.051C195.098 105.307 194.818 102.25 194.211 99.87C193.651 97.49 192.764 96.3 191.551 96.3ZM288.262 83.84C286.769 83.9333 285.672 84.12 284.972 84.4C284.319 84.68 283.875 85.2167 283.642 86.01C283.409 86.8033 283.292 88.0867 283.292 89.86V124.58C283.292 126.353 283.409 127.637 283.642 128.43C283.922 129.223 284.389 129.76 285.042 130.04C285.695 130.32 286.769 130.507 288.262 130.6V132C285.415 131.86 281.285 131.79 275.872 131.79C270.225 131.79 266.072 131.86 263.412 132V130.6C265.092 130.507 266.305 130.32 267.052 130.04C267.845 129.76 268.382 129.223 268.662 128.43C268.942 127.637 269.082 126.353 269.082 124.58V88.81L252.212 131.93H251.092L231.352 86.99V118.28C231.352 121.733 231.492 124.23 231.772 125.77C232.052 127.263 232.659 128.36 233.592 129.06C234.572 129.76 236.182 130.273 238.422 130.6V132C236.509 131.86 233.895 131.79 230.582 131.79C228.109 131.79 226.172 131.86 224.772 132V130.6C226.219 130.273 227.292 129.783 227.992 129.13C228.692 128.43 229.159 127.38 229.392 125.98C229.625 124.58 229.742 122.48 229.742 119.68V89.86C229.742 88.0867 229.602 86.8033 229.322 86.01C229.089 85.2167 228.645 84.68 227.992 84.4C227.339 84.12 226.265 83.9333 224.772 83.84V82.44C226.172 82.58 228.109 82.65 230.582 82.65C236.182 82.65 241.012 82.58 245.072 82.44L258.302 112.19L269.782 82.65H275.872C281.285 82.65 285.415 82.58 288.262 82.44V83.84ZM301.481 77.26C303.908 77.26 305.774 77.7733 307.081 78.8C308.434 79.8267 309.111 81.32 309.111 83.28C309.111 85.24 308.434 86.7333 307.081 87.76C305.774 88.7867 303.908 89.3 301.481 89.3C299.008 89.3 297.118 88.7867 295.811 87.76C294.504 86.7333 293.851 85.24 293.851 83.28C293.851 81.32 294.504 79.8267 295.811 78.8C297.118 77.7733 299.008 77.26 301.481 77.26ZM308.201 125.49C308.201 127.403 308.481 128.733 309.041 129.48C309.648 130.18 310.674 130.53 312.121 130.53V132C307.081 131.813 303.768 131.72 302.181 131.72C300.594 131.72 297.094 131.813 291.681 132V130.53C293.128 130.53 294.131 130.18 294.691 129.48C295.298 128.733 295.601 127.403 295.601 125.49V103.3C295.601 101.153 295.298 99.59 294.691 98.61C294.131 97.63 293.128 97.14 291.681 97.14V95.67C293.174 95.81 294.621 95.88 296.021 95.88C300.874 95.88 304.934 95.5533 308.201 94.9V125.49ZM350.906 124.3C350.906 126.447 351.186 128.01 351.746 128.99C352.353 129.97 353.38 130.46 354.826 130.46V131.93C353.38 131.79 351.933 131.72 350.486 131.72C345.633 131.72 341.573 132.047 338.306 132.7V127.73C337.326 129.55 336.16 130.88 334.806 131.72C333.5 132.56 331.82 132.98 329.766 132.98C325.473 132.98 322.02 131.393 319.406 128.22C316.793 125 315.486 120.123 315.486 113.59C315.486 107.383 316.863 102.693 319.616 99.52C322.416 96.3 326.22 94.69 331.026 94.69C334.013 94.69 336.44 95.2733 338.306 96.44V85.66C338.306 83.5133 338.003 81.95 337.396 80.97C336.836 79.99 335.833 79.5 334.386 79.5V78.03C335.833 78.17 337.28 78.24 338.726 78.24C343.58 78.24 347.64 77.9133 350.906 77.26V124.3ZM333.266 129.34C334.62 129.34 335.786 128.873 336.766 127.94C337.793 126.96 338.306 125.747 338.306 124.3V97.91C337.28 97.3033 336.183 97 335.016 97C332.823 97 331.19 98.4 330.116 101.2C329.09 103.953 328.576 108.153 328.576 113.8C328.576 119.54 328.996 123.577 329.836 125.91C330.676 128.197 331.82 129.34 333.266 129.34ZM393.563 124.3C393.563 126.447 393.843 128.01 394.403 128.99C395.009 129.97 396.036 130.46 397.483 130.46V131.93C396.036 131.79 394.589 131.72 393.143 131.72C388.289 131.72 384.229 132.047 380.963 132.7V127.73C379.983 129.55 378.816 130.88 377.463 131.72C376.156 132.56 374.476 132.98 372.423 132.98C368.129 132.98 364.676 131.393 362.063 128.22C359.449 125 358.143 120.123 358.143 113.59C358.143 107.383 359.519 102.693 362.273 99.52C365.073 96.3 368.876 94.69 373.683 94.69C376.669 94.69 379.096 95.2733 380.963 96.44V85.66C380.963 83.5133 380.659 81.95 380.053 80.97C379.493 79.99 378.489 79.5 377.043 79.5V78.03C378.489 78.17 379.936 78.24 381.383 78.24C386.236 78.24 390.296 77.9133 393.563 77.26V124.3ZM375.923 129.34C377.276 129.34 378.443 128.873 379.423 127.94C380.449 126.96 380.963 125.747 380.963 124.3V97.91C379.936 97.3033 378.839 97 377.673 97C375.479 97 373.846 98.4 372.773 101.2C371.746 103.953 371.233 108.153 371.233 113.8C371.233 119.54 371.653 123.577 372.493 125.91C373.333 128.197 374.476 129.34 375.923 129.34ZM416.409 125.49C416.409 127.403 416.689 128.733 417.249 129.48C417.856 130.18 418.882 130.53 420.329 130.53V132C415.289 131.813 411.976 131.72 410.389 131.72C408.802 131.72 405.302 131.813 399.889 132V130.53C401.336 130.53 402.339 130.18 402.899 129.48C403.506 128.733 403.809 127.403 403.809 125.49V85.66C403.809 83.5133 403.506 81.95 402.899 80.97C402.339 79.99 401.336 79.5 399.889 79.5V78.03C401.336 78.17 402.782 78.24 404.229 78.24C409.082 78.24 413.142 77.9133 416.409 77.26V125.49ZM444.224 125.35C447.631 125.35 450.454 123.787 452.694 120.66L453.884 121.08C452.857 124.347 451.107 127.147 448.634 129.48C446.207 131.813 443.081 132.98 439.254 132.98C434.354 132.98 430.434 131.463 427.494 128.43C424.554 125.397 423.084 120.543 423.084 113.87C423.084 107.477 424.717 102.693 427.984 99.52C431.297 96.3 435.661 94.69 441.074 94.69C449.894 94.69 454.304 99.9167 454.304 110.37H436.244C436.197 110.93 436.174 111.77 436.174 112.89C436.174 117.37 436.944 120.567 438.484 122.48C440.071 124.393 441.984 125.35 444.224 125.35ZM440.584 96.3C437.971 96.3 436.431 100.547 435.964 109.04H444.084C444.131 105.307 443.851 102.25 443.244 99.87C442.684 97.49 441.797 96.3 440.584 96.3ZM513.705 120.24C513.705 125 513.868 128.92 514.195 132C511.022 131.86 505.678 131.79 498.165 131.79C487.245 131.79 479.078 131.86 473.665 132V130.6C475.158 130.507 476.232 130.32 476.885 130.04C477.585 129.76 478.052 129.223 478.285 128.43C478.518 127.637 478.635 126.353 478.635 124.58V89.86C478.635 88.0867 478.495 86.8033 478.215 86.01C477.982 85.2167 477.538 84.68 476.885 84.4C476.232 84.12 475.158 83.9333 473.665 83.84V82.44C479.078 82.58 487.245 82.65 498.165 82.65C505.025 82.65 509.902 82.58 512.795 82.44C512.468 86.8267 512.305 90.7467 512.305 94.2C512.305 96.3467 512.375 98.0267 512.515 99.24H510.905C510.065 93.8267 508.502 89.9533 506.215 87.62C503.928 85.24 501.198 84.05 498.025 84.05H497.115C495.855 84.05 494.922 84.1667 494.315 84.4C493.755 84.5867 493.358 84.9833 493.125 85.59C492.938 86.15 492.845 87.1067 492.845 88.46V106.38H493.545C495.972 106.38 498.048 105.423 499.775 103.51C501.502 101.597 502.598 99.4733 503.065 97.14H504.675C504.535 99.1 504.465 101.293 504.465 103.72V107.08C504.465 109.46 504.605 112.773 504.885 117.02H503.275C502.855 114.36 501.758 112.167 499.985 110.44C498.258 108.667 496.112 107.78 493.545 107.78H492.845V125.98C492.845 127.333 492.938 128.313 493.125 128.92C493.358 129.48 493.755 129.877 494.315 130.11C494.922 130.297 495.855 130.39 497.115 130.39H499.425C502.132 130.39 504.698 129.083 507.125 126.47C509.552 123.81 511.278 119.587 512.305 113.8H513.915C513.775 115.48 513.705 117.627 513.705 120.24ZM527.802 132.49C524.816 132.49 522.552 131.697 521.012 130.11C519.519 128.477 518.772 126.447 518.772 124.02C518.772 121.92 519.309 120.193 520.382 118.84C521.502 117.44 522.809 116.367 524.302 115.62C525.796 114.873 527.732 114.103 530.112 113.31C532.632 112.47 534.476 111.7 535.642 111C536.809 110.3 537.392 109.32 537.392 108.06V101.83C537.392 100.337 537.019 99.0067 536.272 97.84C535.526 96.6733 534.242 96.09 532.422 96.09C530.976 96.09 529.669 96.4867 528.502 97.28C530.089 97.84 531.256 98.68 532.002 99.8C532.796 100.873 533.192 102.087 533.192 103.44C533.192 105.26 532.539 106.73 531.232 107.85C529.972 108.923 528.432 109.46 526.612 109.46C524.792 109.46 523.346 108.9 522.272 107.78C521.246 106.613 520.732 105.143 520.732 103.37C520.732 101.97 521.082 100.757 521.782 99.73C522.482 98.7033 523.579 97.77 525.072 96.93C527.686 95.4367 531.419 94.69 536.272 94.69C538.839 94.69 541.056 94.9467 542.922 95.46C544.789 95.9267 546.376 96.8367 547.682 98.19C548.616 99.17 549.222 100.407 549.502 101.9C549.829 103.347 549.992 105.377 549.992 107.99V126.75C549.992 127.917 550.062 128.71 550.202 129.13C550.389 129.55 550.692 129.76 551.112 129.76C551.439 129.76 551.789 129.667 552.162 129.48C552.536 129.247 552.886 128.99 553.212 128.71L553.912 129.9C551.906 131.627 549.036 132.49 545.302 132.49C542.502 132.49 540.542 132.023 539.422 131.09C538.302 130.11 537.696 128.803 537.602 127.17C535.409 130.717 532.142 132.49 527.802 132.49ZM534.802 126.89C535.782 126.89 536.646 126.493 537.392 125.7V110.93C536.972 111.63 536.202 112.54 535.082 113.66C533.822 114.873 532.866 116.063 532.212 117.23C531.559 118.35 531.232 119.89 531.232 121.85C531.232 125.21 532.422 126.89 534.802 126.89ZM570.59 94.69C572.41 94.69 574.113 94.9 575.7 95.32C577.333 95.6933 578.57 96.1133 579.41 96.58C579.923 96.86 580.343 97 580.67 97C581.65 97 582.233 96.2533 582.42 94.76H583.82C583.633 97.1867 583.54 101.387 583.54 107.36H582.14C581.767 104.28 580.88 101.69 579.48 99.59C578.127 97.4433 576.143 96.37 573.53 96.37C572.363 96.37 571.383 96.72 570.59 97.42C569.797 98.12 569.4 99.0767 569.4 100.29C569.4 101.83 569.913 103.207 570.94 104.42C571.967 105.587 573.577 107.033 575.77 108.76C575.863 108.807 576.54 109.343 577.8 110.37C580.413 112.517 582.327 114.43 583.54 116.11C584.753 117.743 585.36 119.773 585.36 122.2C585.36 124.253 584.73 126.12 583.47 127.8C582.21 129.433 580.483 130.717 578.29 131.65C576.143 132.537 573.787 132.98 571.22 132.98C568.28 132.98 565.877 132.397 564.01 131.23C563.217 130.81 562.563 130.507 562.05 130.32C561.537 130.133 561.023 130.04 560.51 130.04C559.623 130.04 558.97 130.857 558.55 132.49H557.15C557.337 129.83 557.43 125.163 557.43 118.49H558.83C559.25 122.317 560.277 125.397 561.91 127.73C563.543 130.063 565.597 131.23 568.07 131.23C569.237 131.23 570.193 130.903 570.94 130.25C571.733 129.597 572.13 128.64 572.13 127.38C572.13 126.073 571.85 124.907 571.29 123.88C570.777 122.853 570.123 121.943 569.33 121.15C568.583 120.31 567.347 119.12 565.62 117.58C563.66 115.76 562.167 114.313 561.14 113.24C560.113 112.167 559.227 110.93 558.48 109.53C557.78 108.083 557.43 106.497 557.43 104.77C557.43 102.763 558.037 100.99 559.25 99.45C560.463 97.91 562.073 96.7433 564.08 95.95C566.087 95.11 568.257 94.69 570.59 94.69ZM605.078 95.67H611.938V97.07H605.078V126.12C605.078 127.053 605.241 127.707 605.568 128.08C605.894 128.453 606.431 128.64 607.178 128.64C607.738 128.64 608.368 128.477 609.068 128.15C609.768 127.823 610.398 127.31 610.958 126.61L612.008 127.45C609.861 131.137 606.548 132.98 602.068 132.98C598.848 132.98 596.444 132.187 594.858 130.6C593.878 129.62 593.224 128.407 592.898 126.96C592.618 125.513 592.478 123.483 592.478 120.87V97.07H587.157V95.67H592.478V87.41C594.998 87.41 597.261 87.1767 599.268 86.71C601.321 86.1967 603.258 85.4033 605.078 84.33V95.67Z" fill="white"/>
</svg>
